<svg width="11" height="11" viewBox="0 0 11 11" fill="none" xmlns="http://www.w3.org/2000/svg">
<path d="M1.38012 8.8393C1.42701 9.49785 1.98091 10.0137 2.6411 10.0137H8.26308C8.92326 10.0137 9.47717 9.49785 9.52405 8.8393L10.1146 0.546387H0.789551L1.38012 8.8393ZM6.60444 2.80087C6.61607 2.56843 6.81427 2.38917 7.04634 2.40105C7.27878 2.41268 7.45779 2.61054 7.44616 2.84295L7.22142 7.33782C7.21015 7.56309 7.02395 7.73817 6.8009 7.73817C6.55826 7.73817 6.3677 7.53525 6.37967 7.29573L6.60444 2.80087ZM3.85786 2.40105C4.08999 2.38939 4.28816 2.56846 4.29976 2.80087L4.5245 7.29573C4.53647 7.53537 4.34577 7.73817 4.10328 7.73817C3.88022 7.73817 3.69402 7.56309 3.68275 7.33782L3.45801 2.84295C3.44641 2.61054 3.62542 2.41268 3.85786 2.40105Z" fill="white"/>
</svg>
