<svg width="13" height="5" viewBox="0 0 13 5" fill="none" xmlns="http://www.w3.org/2000/svg">
<path d="M11.9538 4.24805C12.2639 4.24805 12.4789 3.93454 12.3626 3.64705C11.9497 2.62632 10.9483 1.9043 9.78131 1.9043H9.24184C9.04066 0.841611 8.10893 0 6.96881 0H6.03131C4.89193 0 3.95958 0.841055 3.75828 1.9043H3.21881C2.0518 1.9043 1.05037 2.62632 0.637492 3.64705C0.521213 3.93454 0.736223 4.24805 1.04633 4.24805H11.9538ZM6.03131 0.878906H6.96881C7.61041 0.878906 8.15504 1.31057 8.33838 1.9043H4.66174C4.84508 1.31057 5.38971 0.878906 6.03131 0.878906Z" fill="white"/>
</svg>
