<svg width="44" height="30" viewBox="0 0 44 30" fill="none" xmlns="http://www.w3.org/2000/svg">
<path d="M40.143 0H4.42862C2.45718 0.00232144 0.859499 1.60001 0.857178 3.57144V26.4287C0.859499 28.4001 2.45718 29.9978 4.42862 30.0001H40.143C40.3435 30.0009 40.5436 29.9834 40.7409 29.948C42.4596 29.6603 43.7178 28.1713 43.7145 26.4287V3.57144C43.7122 1.59992 42.1145 0.00232144 40.143 0ZM4.42862 28.5715C3.31835 28.5713 2.392 27.7232 2.29433 26.6172L16.5358 17.3058L31.0187 28.5715H4.42862ZM42.2859 26.4287C42.2871 27.4771 41.5277 28.3716 40.493 28.5408C40.3775 28.5616 40.2604 28.5719 40.143 28.5715H33.3451L23.8815 21.2065L32.3444 14.4393L42.2859 20.4044V26.4287ZM42.2859 18.7386L32.6537 12.9593C32.3976 12.8053 32.0728 12.827 31.8394 13.0136L22.7201 20.3065L17.0094 15.8651C16.7688 15.6781 16.4361 15.6643 16.1808 15.8308L2.28575 24.9158V3.57144C2.28575 2.38795 3.24513 1.42858 4.42862 1.42858H40.143C41.3265 1.42858 42.2859 2.38795 42.2859 3.57144V18.7386Z" fill="#212B35"/>
</svg>
